<svg xmlns="http://www.w3.org/2000/svg" viewBox="0 0 168.434 21.884"><defs><style>.a{fill:#fff;}</style></defs><g transform="translate(-305.182 -247.333)"><path class="a" d="M322.311,257.978h0v4.614c-.285,4.587-4.928,6.625-8.566,6.625-3.738,0-8.563-1.907-8.563-6.907V254.5c0-5.027,4.824-7.168,8.563-7.168,4,0,8.566,2.295,8.566,6.549,0,.773-.182.9-.929.9h-3.071c-.9,0-.773-.642-.929-1.083-.361-.979-1.5-1.958-3.638-1.958a3.318,3.318,0,0,0-3.508,3.453v6.395c0,2.034,1.42,3.22,3.508,3.22,2.063,0,3.535-.952,3.535-3.4h-2.865c-.722,0-.929-.361-.929-.928v-2.5c0-.567.207-.9.929-.9h6.967C322.129,257.077,322.311,257.411,322.311,257.978Z"/><path class="a" d="M364.348,269.308h-3.766a1.675,1.675,0,0,1-1.575-.952l-3.456-5.13a2.435,2.435,0,0,1-.334-1.625v-2.553c0-.567.179-.928.929-.928h.619a2.859,2.859,0,0,0,3.044-2.577,2.718,2.718,0,0,0-2.94-2.7h-4.234V268.38c0,.722-.361.928-.929.928H348.56c-.567,0-.9-.206-.9-.928V249.307c0-.567.155-.9.9-.9h8.023c3.456,0,5,.7,6.321,2.037a7.045,7.045,0,0,1-2.579,11.315l4.515,6.521A.627.627,0,0,1,364.348,269.308Z" transform="translate(-22.019 -0.555)"/><path class="a" d="M406.254,265.72h0v2.6c0,.567-.206.928-.929.928H391.058c-.722,0-.929-.361-.929-.928v-19.1c0-.567.207-.928.929-.928h13.725c.722,0,.929.361.929.928v2.656c0,.567-.207.9-.929.9h-9.622v3.477H403.7c.722,0,.929.361.929.928v2.478c0,.567-.207.928-.929.928h-8.539v4.2h10.165C406.048,264.792,406.254,265.129,406.254,265.72Z" transform="translate(-44.034 -0.499)"/><path class="a" d="M447.2,265.72h0v2.6c0,.567-.179.928-.929.928H432.012c-.722,0-.9-.361-.9-.928v-19.1c0-.567.183-.928.9-.928h13.722c.749,0,.929.361.929.928v2.656c0,.567-.179.9-.929.9h-9.595v3.477h8.511c.749,0,.929.361.929.928v2.478c0,.567-.179.928-.929.928h-8.511v4.2h10.138C447.026,264.792,447.2,265.129,447.2,265.72Z" transform="translate(-65.276 -0.499)"/><path class="a" d="M489.03,249.224h0v19.1c0,.567-.183.928-.929.928h-2.889c-.8,0-1.032-.464-1.448-1.083l-6.73-10.93v11.085c0,.722-.361.928-.928.928h-3.15c-.591,0-.929-.206-.929-.928v-19.1c0-.567.183-.928.929-.928h2.992c.8,0,1.008.464,1.42,1.082l6.761,10.906V249.224c0-.721.361-.928.929-.928H488.1C488.669,248.3,489.03,248.5,489.03,249.224Z" transform="translate(-86.488 -0.499)"/><path class="a" d="M530.89,262.541h0c0,4.511-3.56,6.676-8.46,6.676-4,0-8.566-2.3-8.566-6.752,0-.721.183-.876.9-.876h3.095c.747,0,1.083.1,1.159.876a2.087,2.087,0,0,0,.6,1.312,4.149,4.149,0,0,0,3.122,1.059c1.726,0,3.119-.389,3.119-2.165s-2.837-1.8-5.547-2.68c-3.2-1.007-6.162-2.295-6.162-6.316,0-4.151,3.738-6.188,7.737-6.343,4.024,0,8.464,1.855,8.464,6.033,0,.773-.182.9-.932.9H526.3c-.595,0-.7-.436-.853-.849a2.278,2.278,0,0,0-.67-.955,4.124,4.124,0,0,0-2.706-.876c-1.059,0-2.813.412-2.813,1.855,0,1.935,4.694,2.629,5.96,3.144C527.509,257.283,530.89,258.212,530.89,262.541Z" transform="translate(-108.174)"/><path class="a" d="M568.319,249.224h0v2.656c0,.567-.207.9-.929.9h-4.877v15.541c0,.722-.337.928-.929.928h-3.146c-.567,0-.932-.206-.932-.928V252.783h-4.9c-.722,0-.929-.337-.929-.9v-2.656c0-.567.206-.928.929-.928h14.784C568.113,248.3,568.319,248.657,568.319,249.224Z" transform="translate(-127.776 -0.499)"/><path class="a" d="M594.7,261.315h0l-2.4-7.038-2.373,7.038Zm6.94,7.937h-3.353c-.7,0-.956-.206-1.214-.952l-.877-2.529h-7.817L587.5,268.3c-.258.746-.516.952-1.214.952h-3.353c-.695,0-.695-.515-.54-.9l7.067-19.05a1.3,1.3,0,0,1,1.317-1.007h3.043c.722,0,1.032.337,1.314,1.007l7.043,19.05C602.33,268.737,602.33,269.253,601.636,269.253Z" transform="translate(-143.654 -0.499)"/><path class="a" d="M636.987,249.224h0v2.656c0,.567-.207.9-.929.9h-4.876v15.541c0,.722-.361.928-.929.928h-3.146c-.567,0-.929-.206-.929-.928V252.783h-4.9c-.722,0-.929-.337-.929-.9v-2.656c0-.567.206-.928.929-.928h14.784C636.781,248.3,636.987,248.657,636.987,249.224Z" transform="translate(-163.372 -0.499)"/></g></svg>